<svg width="101" height="146" viewBox="0 0 101 146" fill="none" xmlns="http://www.w3.org/2000/svg">
<path fill-rule="evenodd" clip-rule="evenodd" d="M67.3332 74.875C67.3332 79.3395 65.5597 83.6211 62.4028 86.778C59.2459 89.9348 54.9643 91.7083 50.4998 91.7083C46.0354 91.7083 41.7537 89.9348 38.5969 86.778C35.44 83.6211 33.6665 79.3395 33.6665 74.875C33.6665 70.4105 35.44 66.1289 38.5969 62.972C41.7537 59.8152 46.0354 58.0417 50.4998 58.0417C54.9643 58.0417 59.2459 59.8152 62.4028 62.972C65.5597 66.1289 67.3332 70.4105 67.3332 74.875ZM58.9165 74.875C58.9165 77.1072 58.0297 79.2481 56.4513 80.8265C54.8729 82.4049 52.7321 83.2917 50.4998 83.2917C48.2676 83.2917 46.1268 82.4049 44.5484 80.8265C42.9699 79.2481 42.0832 77.1072 42.0832 74.875C42.0832 72.6428 42.9699 70.502 44.5484 68.9235C46.1268 67.3451 48.2676 66.4583 50.4998 66.4583C52.7321 66.4583 54.8729 67.3451 56.4513 68.9235C58.0297 70.502 58.9165 72.6428 58.9165 74.875Z" fill="black"/>
<path fill-rule="evenodd" clip-rule="evenodd" d="M50.4999 41.2083C24.9343 41.2083 4.20825 61.9344 4.20825 87.5C4.20825 113.066 24.9343 133.792 50.4999 133.792C76.0655 133.792 96.7916 113.066 96.7916 87.5C96.7916 61.9344 76.0655 41.2083 50.4999 41.2083ZM12.6249 87.5C12.6249 96.2954 15.6255 104.392 20.6544 110.823C24.1871 106.186 28.7435 102.428 33.9681 99.8419C39.1926 97.2563 44.9441 95.9129 50.7735 95.9167C56.5278 95.9099 62.2078 97.2174 67.3801 99.7394C72.5524 102.261 77.0805 105.931 80.6189 110.469C84.2653 105.687 86.7204 100.105 87.7811 94.1853C88.8418 88.2658 88.4777 82.1787 86.7189 76.4278C84.9601 70.6769 81.8571 65.4275 77.6667 61.1139C73.4764 56.8003 68.3191 53.5466 62.6215 51.6219C56.924 49.6972 50.85 49.1569 44.9022 50.0457C38.9544 50.9345 33.3038 53.2269 28.4178 56.7331C23.5319 60.2393 19.551 64.8586 16.8048 70.2088C14.0585 75.5589 12.6257 81.4862 12.6249 87.5ZM50.4999 125.375C41.8051 125.389 33.3726 122.398 26.6303 116.908C29.3438 113.022 32.9562 109.849 37.1598 107.66C41.3634 105.47 46.0339 104.329 50.7735 104.333C55.4539 104.329 60.0677 105.442 64.2316 107.579C68.3956 109.716 71.9894 112.816 74.7147 116.622C67.9202 122.29 59.3485 125.389 50.4999 125.375Z" fill="black"/>
<path d="M74.422 24.0625C74.418 20.6449 73.0586 17.3684 70.642 14.9518C68.2254 12.5352 64.949 11.1759 61.5314 11.1719C61.3165 11.1719 61.1124 11.1719 60.904 11.1891C59.8097 9.11261 58.1693 7.37435 56.1596 6.16178C54.1499 4.94921 51.8473 4.30836 49.5001 4.30836C47.153 4.30836 44.8503 4.94921 42.8407 6.16178C40.831 7.37435 39.1905 9.11261 38.0962 11.1891C37.8986 11.1719 37.6837 11.1719 37.4689 11.1719C34.5941 11.1778 31.8037 12.1446 29.5415 13.9185C27.2792 15.6924 25.6748 18.1717 24.9834 20.9621C24.2919 23.7525 24.5531 26.694 25.7254 29.319C26.8977 31.9439 28.9138 34.1017 31.4532 35.4492V44.6875C31.4532 45.8271 31.906 46.92 32.7118 47.7258C33.5176 48.5317 34.6105 48.9844 35.7501 48.9844H63.2501C64.3897 48.9844 65.4827 48.5317 66.2885 47.7258C67.0943 46.92 67.547 45.8271 67.547 44.6875V35.4492C69.6198 34.3555 71.3552 32.7174 72.5666 30.7111C73.778 28.7048 74.4194 26.4062 74.422 24.0625ZM62.3907 43.8281H36.6095V36.9209C36.8931 36.9402 37.1788 36.9531 37.4689 36.9531H61.5314C61.8214 36.9531 62.1072 36.9402 62.3907 36.9209V43.8281ZM61.5314 31.7969H59.6773L60.5947 28.1252C60.7474 27.4666 60.6352 26.7743 60.2824 26.1975C59.9296 25.6208 59.3644 25.2057 58.7084 25.0417C58.0525 24.8777 57.3584 24.978 56.7757 25.3209C56.193 25.6637 55.7683 26.2218 55.5931 26.8748L54.362 31.7969H52.0782V27.5C52.0782 26.8162 51.8066 26.1605 51.3231 25.677C50.8396 25.1935 50.1839 24.9219 49.5001 24.9219C48.8164 24.9219 48.1606 25.1935 47.6771 25.677C47.1936 26.1605 46.922 26.8162 46.922 27.5V31.7969H44.6382L43.4072 26.8748C43.3298 26.5414 43.1869 26.2267 42.9867 25.949C42.7865 25.6714 42.533 25.4365 42.241 25.2579C41.949 25.0792 41.6244 24.9606 41.286 24.9087C40.9477 24.8569 40.6024 24.873 40.2704 24.956C39.9383 25.039 39.6261 25.1873 39.352 25.3923C39.0778 25.5972 38.8472 25.8547 38.6736 26.1497C38.5001 26.4447 38.387 26.7713 38.3409 27.1105C38.2949 27.4497 38.3169 27.7946 38.4056 28.1252L39.323 31.7969H37.4689C35.4901 31.7962 33.5869 31.0371 32.1508 29.6759C30.7147 28.3146 29.855 26.4547 29.7484 24.4788C29.6419 22.503 30.2968 20.5614 31.5782 19.0537C32.8596 17.5459 34.6702 16.5867 36.6374 16.3732C36.6202 16.6439 36.6095 16.9146 36.6095 17.1875C36.6095 17.8713 36.8811 18.527 37.3646 19.0105C37.8481 19.494 38.5039 19.7656 39.1876 19.7656C39.8714 19.7656 40.5271 19.494 41.0106 19.0105C41.4941 18.527 41.7657 17.8713 41.7657 17.1875C41.7657 15.1362 42.5806 13.1689 44.0311 11.7185C45.4816 10.268 47.4488 9.45312 49.5001 9.45312C51.5514 9.45312 53.5187 10.268 54.9692 11.7185C56.4196 13.1689 57.2345 15.1362 57.2345 17.1875C57.2345 17.8713 57.5061 18.527 57.9896 19.0105C58.4731 19.494 59.1289 19.7656 59.8126 19.7656C60.4964 19.7656 61.1521 19.494 61.6356 19.0105C62.1191 18.527 62.3907 17.8713 62.3907 17.1875C62.3907 16.9146 62.38 16.6439 62.3628 16.3732C64.33 16.5867 66.1406 17.5459 67.422 19.0537C68.7035 20.5614 69.3583 22.503 69.2518 24.4788C69.1453 26.4547 68.2855 28.3146 66.8494 29.6759C65.4133 31.0371 63.5101 31.7962 61.5314 31.7969Z" fill="black"/>
</svg>
