<svg width="16" height="16" viewBox="0 0 16 16" fill="none" xmlns="http://www.w3.org/2000/svg">
<path d="M9.33333 1.99999C9.33333 1.63181 9.6318 1.33333 9.99999 1.33333H12.6667C13.1971 1.33333 13.7058 1.54404 14.0809 1.91911C14.4559 2.29419 14.6667 2.80289 14.6667 3.33333V12.6667C14.6667 13.1971 14.4559 13.7058 14.0809 14.0809C13.7058 14.4559 13.1971 14.6667 12.6667 14.6667H9.99999C9.6318 14.6667 9.33333 14.3682 9.33333 14C9.33333 13.6318 9.6318 13.3333 9.99999 13.3333H12.6667C12.8435 13.3333 13.013 13.2631 13.1381 13.1381C13.2631 13.013 13.3333 12.8435 13.3333 12.6667V3.33333C13.3333 3.15652 13.2631 2.98695 13.1381 2.86192C13.013 2.7369 12.8435 2.66666 12.6667 2.66666H9.99999C9.6318 2.66666 9.33333 2.36818 9.33333 1.99999Z" fill="black"/>
<path d="M6.19526 4.19526C6.45561 3.93491 6.87772 3.93491 7.13807 4.19526L10.4714 7.52859C10.7317 7.78894 10.7317 8.21105 10.4714 8.4714L7.13807 11.8047C6.87772 12.0651 6.45561 12.0651 6.19526 11.8047C5.93491 11.5444 5.93491 11.1223 6.19526 10.8619L8.39052 8.66666H1.99999C1.63181 8.66666 1.33333 8.36818 1.33333 7.99999C1.33333 7.6318 1.63181 7.33333 1.99999 7.33333H8.39052L6.19526 5.13807C5.93491 4.87772 5.93491 4.45561 6.19526 4.19526Z" fill="black"/>
</svg>
