<svg width="16" height="16" viewBox="0 0 16 16" fill="none" xmlns="http://www.w3.org/2000/svg">
<path fill-rule="evenodd" clip-rule="evenodd" d="M10.6667 6.00001C10.6667 6.70725 10.3857 7.38553 9.88563 7.88563C9.38553 8.38573 8.70725 8.66668 8.00001 8.66668C7.29277 8.66668 6.61449 8.38573 6.11439 7.88563C5.61429 7.38553 5.33334 6.70725 5.33334 6.00001C5.33334 5.29277 5.61429 4.61449 6.11439 4.11439C6.61449 3.61429 7.29277 3.33334 8.00001 3.33334C8.70725 3.33334 9.38553 3.61429 9.88563 4.11439C10.3857 4.61449 10.6667 5.29277 10.6667 6.00001ZM9.33334 6.00001C9.33334 6.35363 9.19287 6.69277 8.94282 6.94282C8.69277 7.19287 8.35363 7.33334 8.00001 7.33334C7.64639 7.33334 7.30725 7.19287 7.0572 6.94282C6.80715 6.69277 6.66668 6.35363 6.66668 6.00001C6.66668 5.64639 6.80715 5.30725 7.0572 5.0572C7.30725 4.80715 7.64639 4.66668 8.00001 4.66668C8.35363 4.66668 8.69277 4.80715 8.94282 5.0572C9.19287 5.30725 9.33334 5.64639 9.33334 6.00001Z" fill="black"/>
<path fill-rule="evenodd" clip-rule="evenodd" d="M8.00001 0.666672C3.95001 0.666672 0.666672 3.95001 0.666672 8.00001C0.666672 12.05 3.95001 15.3333 8.00001 15.3333C12.05 15.3333 15.3333 12.05 15.3333 8.00001C15.3333 3.95001 12.05 0.666672 8.00001 0.666672ZM2.00001 8.00001C2.00001 9.39334 2.47534 10.676 3.27201 11.6947C3.83163 10.9601 4.55344 10.3648 5.3811 9.95516C6.20875 9.54555 7.11987 9.33274 8.04334 9.33334C8.95493 9.33228 9.85472 9.5394 10.6741 9.93892C11.4935 10.3384 12.2108 10.9198 12.7713 11.6387C13.349 10.8811 13.7379 9.99682 13.9059 9.05907C14.074 8.12131 14.0163 7.15703 13.7377 6.24599C13.459 5.33496 12.9675 4.50337 12.3037 3.82003C11.6398 3.13669 10.8228 2.62124 9.92026 2.31634C9.01768 2.01144 8.05547 1.92585 7.11325 2.06665C6.17102 2.20745 5.27587 2.5706 4.50185 3.12604C3.72784 3.68148 3.09721 4.41325 2.66216 5.2608C2.2271 6.10835 2.00013 7.04732 2.00001 8.00001ZM8.00001 14C6.62261 14.0022 5.28677 13.5284 4.21867 12.6587C4.64855 12.0431 5.2208 11.5405 5.88672 11.1936C6.55264 10.8468 7.29251 10.666 8.04334 10.6667C8.78479 10.666 9.51569 10.8423 10.1753 11.1809C10.835 11.5195 11.4043 12.0105 11.836 12.6133C10.7597 13.5113 9.40177 14.0022 8.00001 14Z" fill="black"/>
</svg>
