<svg width="16" height="16" viewBox="0 0 16 16" fill="none" xmlns="http://www.w3.org/2000/svg">
<path d="M9.33333 6.6V5.46667C9.7 5.31112 10.0751 5.19445 10.4587 5.11667C10.8422 5.03889 11.2449 5.00001 11.6667 5.00001C11.9556 5.00001 12.2389 5.02223 12.5167 5.06667C12.7944 5.11112 13.0667 5.16667 13.3333 5.23334V6.30001C13.0667 6.20001 12.7971 6.12512 12.5247 6.07534C12.2522 6.02556 11.9662 6.00045 11.6667 6.00001C11.2444 6.00001 10.8389 6.05289 10.45 6.15867C10.0611 6.26445 9.68889 6.41156 9.33333 6.6ZM9.33333 10.2667V9.13334C9.7 8.97778 10.0751 8.86112 10.4587 8.78334C10.8422 8.70556 11.2449 8.66667 11.6667 8.66667C11.9556 8.66667 12.2389 8.68889 12.5167 8.73334C12.7944 8.77778 13.0667 8.83334 13.3333 8.90001V9.96667C13.0667 9.86667 12.7971 9.79156 12.5247 9.74134C12.2522 9.69112 11.9662 9.66623 11.6667 9.66667C11.2444 9.66667 10.8389 9.71667 10.45 9.81667C10.0611 9.91667 9.68889 10.0667 9.33333 10.2667ZM9.33333 8.43334V7.30001C9.7 7.14445 10.0751 7.02778 10.4587 6.95001C10.8422 6.87223 11.2449 6.83334 11.6667 6.83334C11.9556 6.83334 12.2389 6.85556 12.5167 6.90001C12.7944 6.94445 13.0667 7.00001 13.3333 7.06667V8.13334C13.0667 8.03334 12.7971 7.95823 12.5247 7.90801C12.2522 7.85778 11.9662 7.83289 11.6667 7.83334C11.2444 7.83334 10.8389 7.88623 10.45 7.99201C10.0611 8.09778 9.68889 8.24489 9.33333 8.43334ZM4.33333 10.6667C4.85556 10.6667 5.364 10.7251 5.85867 10.842C6.35333 10.9589 6.84489 11.1338 7.33333 11.3667V4.80001C6.87778 4.53334 6.39445 4.33334 5.88333 4.20001C5.37222 4.06667 4.85556 4.00001 4.33333 4.00001C3.93333 4.00001 3.536 4.03889 3.14133 4.11667C2.74667 4.19445 2.36622 4.31112 2 4.46667V11.0667C2.38889 10.9333 2.77511 10.8333 3.15867 10.7667C3.54222 10.7 3.93378 10.6667 4.33333 10.6667ZM8.66667 11.3667C9.15556 11.1333 9.64734 10.9585 10.142 10.842C10.6367 10.7256 11.1449 10.6671 11.6667 10.6667C12.0667 10.6667 12.4584 10.7 12.842 10.7667C13.2256 10.8333 13.6116 10.9333 14 11.0667V4.46667C13.6333 4.31112 13.2527 4.19445 12.858 4.11667C12.4633 4.03889 12.0662 4.00001 11.6667 4.00001C11.1444 4.00001 10.6278 4.06667 10.1167 4.20001C9.60556 4.33334 9.12222 4.53334 8.66667 4.80001V11.3667ZM8 13.3333C7.46667 12.9111 6.88889 12.5833 6.26667 12.35C5.64445 12.1167 5 12 4.33333 12C3.86667 12 3.40845 12.0611 2.95867 12.1833C2.50889 12.3056 2.07822 12.4778 1.66667 12.7C1.43333 12.8222 1.20845 12.8167 0.992001 12.6833C0.775557 12.55 0.667112 12.3556 0.666668 12.1V4.06667C0.666668 3.94445 0.697335 3.82778 0.758668 3.71667C0.820001 3.60556 0.911557 3.52223 1.03333 3.46667C1.54445 3.2 2.07778 3.00001 2.63333 2.86667C3.18889 2.73334 3.75556 2.66667 4.33333 2.66667C4.97778 2.66667 5.60845 2.75001 6.22533 2.91667C6.84222 3.08334 7.43378 3.33334 8 3.66667C8.56667 3.33334 9.15845 3.08334 9.77533 2.91667C10.3922 2.75001 11.0227 2.66667 11.6667 2.66667C12.2444 2.66667 12.8111 2.73334 13.3667 2.86667C13.9222 3.00001 14.4556 3.2 14.9667 3.46667C15.0889 3.52223 15.1807 3.60556 15.242 3.71667C15.3033 3.82778 15.3338 3.94445 15.3333 4.06667V12.1C15.3333 12.3556 15.2251 12.55 15.0087 12.6833C14.7922 12.8167 14.5671 12.8222 14.3333 12.7C13.9222 12.4778 13.4918 12.3056 13.042 12.1833C12.5922 12.0611 12.1338 12 11.6667 12C11 12 10.3556 12.1167 9.73334 12.35C9.11111 12.5833 8.53333 12.9111 8 13.3333Z" fill="black"/>
</svg>
