<svg width="57" height="57" viewBox="0 0 57 57" fill="none" xmlns="http://www.w3.org/2000/svg">
<path d="M23.1562 51.0625C19.4623 51.0625 16.2157 49.818 13.4164 47.329C10.617 44.84 8.91575 41.7842 8.3125 38.1615C8.265 37.7815 8.34891 37.4625 8.56425 37.2044C8.77958 36.9431 9.0915 36.8125 9.5 36.8125H35.5466L38.2969 11.1815C38.4647 9.70425 39.1052 8.46133 40.2182 7.45275C41.3313 6.44258 42.6502 5.9375 44.175 5.9375C45.8201 5.9375 47.2213 6.51542 48.3788 7.67125C49.5362 8.82708 50.1141 10.2283 50.1125 11.875V12.6065C50.1125 12.9438 49.9993 13.2264 49.7729 13.4544C49.5465 13.6824 49.2638 13.7956 48.925 13.794C48.5862 13.7924 48.3035 13.6792 48.0771 13.4544C47.8507 13.2295 47.7375 12.9469 47.7375 12.6065V11.875C47.7375 10.8981 47.3884 10.0597 46.6901 9.35987C45.9903 8.66162 45.1519 8.3125 44.175 8.3125C43.2377 8.3125 42.4294 8.61967 41.7501 9.234C41.0709 9.84675 40.6917 10.602 40.6125 11.4998L37.8812 37.3279C37.4759 41.2197 35.8839 44.4814 33.1051 47.1129C30.3264 49.7444 27.0101 51.0609 23.1562 51.0625ZM14.5754 31.331C14.1764 31.331 13.8993 31.2194 13.7441 30.9961C13.589 30.7729 13.551 30.4665 13.6301 30.077C13.6998 29.811 13.7441 29.5466 13.7631 29.2838C13.7821 29.0209 13.7924 28.7597 13.794 28.5C13.794 27.1605 13.3982 25.7252 12.6065 24.1941C11.8148 22.663 11.419 21.2285 11.419 19.8906C11.419 19.5961 11.4388 19.2913 11.4784 18.9762C11.518 18.6612 11.6058 18.3405 11.742 18.0144C11.8402 17.8196 11.9747 17.6613 12.1457 17.5394C12.3152 17.4175 12.5131 17.3565 12.7395 17.3565C13.129 17.3565 13.4077 17.4681 13.5755 17.6914C13.7449 17.9162 13.7813 18.2234 13.6847 18.6129C13.6357 18.8171 13.5802 19.243 13.5185 19.8906C13.5185 21.0449 13.9143 22.4105 14.706 23.9875C15.4977 25.5645 15.8935 27.0687 15.8935 28.5C15.8935 28.9417 15.8539 29.3376 15.7747 29.6875C15.6956 30.0374 15.6125 30.3668 15.5254 30.6755C15.4272 30.8703 15.3005 31.0286 15.1454 31.1505C14.9902 31.2708 14.8002 31.331 14.5754 31.331ZM30.0129 31.331C29.6139 31.331 29.3368 31.2194 29.1816 30.9961C29.0265 30.7729 28.9885 30.4665 29.0676 30.077C29.1373 29.811 29.1816 29.5466 29.2006 29.2838C29.2196 29.0209 29.2299 28.7597 29.2315 28.5C29.2315 27.1605 28.8357 25.7252 28.044 24.1941C27.2523 22.663 26.8565 21.2285 26.8565 19.8906C26.8565 19.5961 26.8763 19.2913 26.9159 18.9762C26.9555 18.6612 27.0433 18.3405 27.1795 18.0144C27.2777 17.8196 27.4122 17.6613 27.5832 17.5394C27.7527 17.4175 27.9506 17.3565 28.177 17.3565C28.5649 17.3565 28.8436 17.4681 29.013 17.6914C29.1824 17.9162 29.2188 18.2234 29.1222 18.6129C29.0732 18.8171 29.0177 19.243 28.956 19.8906C28.956 21.0449 29.3518 22.4105 30.1435 23.9875C30.9352 25.5645 31.331 27.0687 31.331 28.5C31.331 28.9417 31.2914 29.3376 31.2122 29.6875C31.1331 30.0374 31.0492 30.3668 30.9605 30.6755C30.8639 30.8703 30.738 31.0286 30.5829 31.1505C30.4277 31.2708 30.2377 31.331 30.0129 31.331ZM22.2941 31.331C21.8935 31.331 21.6165 31.2194 21.4629 30.9961C21.3061 30.7729 21.2673 30.4665 21.3465 30.077C21.4177 29.811 21.4629 29.5466 21.4819 29.2838C21.5009 29.0209 21.5112 28.7597 21.5127 28.5C21.5127 27.1605 21.1169 25.7252 20.3252 24.1941C19.5336 22.663 19.1377 21.2285 19.1377 19.8906C19.1377 19.5961 19.1575 19.2913 19.1971 18.9762C19.2367 18.6612 19.3246 18.3405 19.4607 18.0144C19.5589 17.8196 19.6935 17.6613 19.8645 17.5394C20.0339 17.4175 20.2318 17.3565 20.4582 17.3565C20.8462 17.3565 21.1248 17.4681 21.2942 17.6914C21.4637 17.9162 21.4993 18.2234 21.4011 18.6129C21.3536 18.8171 21.299 19.243 21.2372 19.8906C21.2372 21.0449 21.6331 22.4105 22.4247 23.9875C23.2164 25.5645 23.6122 27.0687 23.6122 28.5C23.6122 28.9417 23.5727 29.3376 23.4935 29.6875C23.4143 30.0374 23.3304 30.3668 23.2417 30.6755C23.1452 30.8703 23.0193 31.0286 22.8641 31.1505C22.709 31.2708 22.519 31.331 22.2941 31.331Z" fill="white"/>
</svg>
